<?xml version="1.0" encoding="iso-8859-1"?>
<!-- Uploaded to: SVG Repo, www.svgrepo.com, Generator: SVG Repo Mixer Tools -->
<svg height="800px" width="800px" version="1.1" id="Layer_1" xmlns="http://www.w3.org/2000/svg" xmlns:xlink="http://www.w3.org/1999/xlink" 
	 viewBox="0 0 512 512" xml:space="preserve">
<polygon style="fill:#D7D5D9;" points="394.817,229.929 394.817,56.258 286.81,56.258 219.652,56.258 183.995,56.258 
	126.891,56.258 93.643,56.258 93.643,504.211 394.817,504.211 394.817,304.764 "/>
<path style="opacity:0.33;fill:#57545C;enable-background:new    ;" d="M353.052,56.257v131.906v74.836v143.07
	c0,31.136-25.24,56.377-56.377,56.377H93.643v41.766h301.174V304.764v-74.836V56.257H353.052z"/>
<polygon style="fill:#3C66B1;" points="294.851,80.746 212.995,80.746 226.198,53.02 212.995,29.256 294.851,29.256 281.648,53.02 
	"/>
<path d="M418.357,67.163h-15.751V56.258c0-4.303-3.486-7.789-7.789-7.789H293.088l8.572-15.429c1.34-2.413,1.303-5.355-0.097-7.733
	s-3.954-3.838-6.713-3.838h-19.199C275.502,9.606,265.819,0,253.922,0c-11.896,0-21.579,9.606-21.728,21.467h-19.199
	c-2.759,0-5.313,1.46-6.713,3.838c-1.4,2.379-1.436,5.32-0.097,7.733l8.573,15.429h-30.763c-4.303,0-7.789,3.486-7.789,7.789
	s3.486,7.789,7.789,7.789h28.325l-6.358,13.349c-1.149,2.413-0.98,5.248,0.447,7.508c1.427,2.261,3.914,3.631,6.586,3.631h81.855
	c2.672,0,5.159-1.37,6.586-3.631c1.427-2.26,1.595-5.093,0.447-7.508l-6.357-13.349h91.502v165.883c0,4.303,3.486,7.789,7.789,7.789
	s7.789-3.486,7.789-7.789V82.741h7.962v413.681h-7.962V304.764c0-4.303-3.486-7.789-7.789-7.789s-7.789,3.486-7.789,7.789v191.658
	H117.183h-15.751V64.047h25.46c4.303,0,7.789-3.486,7.789-7.789s-3.486-7.789-7.789-7.789H93.643c-4.303,0-7.789,3.486-7.789,7.789
	v447.953c0,4.303,3.486,7.789,7.789,7.789h23.54h277.634h23.54c4.303,0,7.789-3.486,7.789-7.789V74.952
	C426.146,70.649,422.66,67.163,418.357,67.163z M253.922,15.578c3.306,0,6.005,2.619,6.15,5.89h-12.3
	C247.918,18.197,250.617,15.578,253.922,15.578z M225.332,72.957l7.898-16.587c1.082-2.273,0.999-4.93-0.224-7.132l-6.773-12.192
	h6.075c0.647,3.649,3.827,6.423,7.662,6.423c3.835,0,7.015-2.773,7.662-6.423h12.583c0.647,3.649,3.827,6.423,7.662,6.423
	s7.015-2.773,7.662-6.423h6.075l-6.773,12.192c-1.222,2.202-1.305,4.858-0.223,7.132l7.898,16.587H225.332z"/>
<path d="M323.851,162.555H173.61c-4.303,0-7.789,3.486-7.789,7.789s3.486,7.789,7.789,7.789h150.241
	c4.303,0,7.789-3.486,7.789-7.789S328.154,162.555,323.851,162.555z"/>
<path d="M173.61,206.039h101.776c4.303,0,7.789-3.486,7.789-7.789s-3.486-7.789-7.789-7.789H173.61
	c-4.303,0-7.789,3.486-7.789,7.789S169.308,206.039,173.61,206.039z"/>
<path d="M173.61,233.944h123.239c4.303,0,7.789-3.486,7.789-7.789s-3.486-7.789-7.789-7.789H173.61
	c-4.303,0-7.789,3.486-7.789,7.789S169.308,233.944,173.61,233.944z"/>
<path d="M143.838,263.984h40.157c4.303,0,7.789-3.486,7.789-7.789c0-4.303-3.486-7.789-7.789-7.789h-32.368v-99.352h32.368
	c4.303,0,7.789-3.486,7.789-7.789s-3.486-7.789-7.789-7.789h-40.157c-4.303,0-7.789,3.486-7.789,7.789v114.93
	C136.049,260.498,139.537,263.984,143.838,263.984z"/>
<path d="M331.64,333.351c0-4.303-3.486-7.789-7.789-7.789H173.61c-4.303,0-7.789,3.486-7.789,7.789s3.486,7.789,7.789,7.789h150.241
	C328.154,341.14,331.64,337.654,331.64,333.351z"/>
<path d="M173.61,369.046h101.776c4.303,0,7.789-3.486,7.789-7.789s-3.486-7.789-7.789-7.789H173.61
	c-4.303,0-7.789,3.486-7.789,7.789S169.308,369.046,173.61,369.046z"/>
<path d="M173.61,396.952h123.239c4.303,0,7.789-3.486,7.789-7.789s-3.486-7.789-7.789-7.789H173.61
	c-4.303,0-7.789,3.486-7.789,7.789S169.308,396.952,173.61,396.952z"/>
<path d="M143.838,426.992h40.157c4.303,0,7.789-3.486,7.789-7.789s-3.486-7.789-7.789-7.789h-32.368v-99.353h32.368
	c4.303,0,7.789-3.486,7.789-7.789s-3.486-7.789-7.789-7.789h-40.157c-4.303,0-7.789,3.486-7.789,7.789v114.931
	C136.049,423.506,139.537,426.992,143.838,426.992z"/>
</svg>