<svg width="681" height="691" viewBox="0 0 681 691" fill="none" xmlns="http://www.w3.org/2000/svg">
<rect x="325.334" y="161.4" width="109" height="8" rx="4" transform="rotate(-2.94026 325.334 161.4)" fill="#FFB71A"/>
<rect x="325.334" y="161.4" width="109" height="8" rx="4" transform="rotate(-2.94026 325.334 161.4)" fill="#FFB71A"/>
<rect x="325.334" y="161.4" width="109" height="8" rx="4" transform="rotate(-2.94026 325.334 161.4)" fill="#FFB71A"/>
<rect x="195.547" y="313.549" width="109" height="10" rx="5" transform="rotate(-2.94026 195.547 313.549)" fill="#FFB71A"/>
<rect x="195.547" y="313.549" width="109" height="10" rx="5" transform="rotate(-2.94026 195.547 313.549)" fill="#FFB71A"/>
<rect x="195.547" y="313.549" width="109" height="10" rx="5" transform="rotate(-2.94026 195.547 313.549)" fill="#FFB71A"/>
<rect x="201.146" y="374.481" width="109" height="10" rx="5" transform="rotate(-2.94026 201.146 374.481)" fill="#FFB71A"/>
<rect x="201.146" y="374.481" width="109" height="10" rx="5" transform="rotate(-2.94026 201.146 374.481)" fill="#FFB71A"/>
<rect x="201.146" y="374.481" width="109" height="10" rx="5" transform="rotate(-2.94026 201.146 374.481)" fill="#FFB71A"/>
<rect x="204.518" y="409.03" width="109" height="10" rx="5" transform="rotate(-2.94026 204.518 409.03)" fill="#FFB71A"/>
<rect x="204.518" y="409.03" width="109" height="10" rx="5" transform="rotate(-2.94026 204.518 409.03)" fill="#FFB71A"/>
<rect x="204.518" y="409.03" width="109" height="10" rx="5" transform="rotate(-2.94026 204.518 409.03)" fill="#FFB71A"/>
<rect x="211.506" y="437.929" width="109" height="10" rx="5" transform="rotate(-2.94026 211.506 437.929)" fill="#FFB71A"/>
<rect x="211.506" y="437.929" width="109" height="10" rx="5" transform="rotate(-2.94026 211.506 437.929)" fill="#FFB71A"/>
<rect x="211.506" y="437.929" width="109" height="10" rx="5" transform="rotate(-2.94026 211.506 437.929)" fill="#FFB71A"/>
<rect x="223.15" y="470.339" width="109" height="10" rx="5" transform="rotate(-2.94026 223.15 470.339)" fill="#FFB71A"/>
<rect x="223.15" y="470.339" width="109" height="10" rx="5" transform="rotate(-2.94026 223.15 470.339)" fill="#FFB71A"/>
<rect x="223.15" y="470.339" width="109" height="10" rx="5" transform="rotate(-2.94026 223.15 470.339)" fill="#FFB71A"/>
<rect x="254.321" y="498.789" width="109" height="10" rx="5" transform="rotate(-2.94026 254.321 498.789)" fill="#FFB71A"/>
<rect x="254.321" y="498.789" width="109" height="10" rx="5" transform="rotate(-2.94026 254.321 498.789)" fill="#FFB71A"/>
<rect x="254.321" y="498.789" width="109" height="10" rx="5" transform="rotate(-2.94026 254.321 498.789)" fill="#FFB71A"/>
<rect x="341.584" y="548.277" width="90" height="10" rx="5" transform="rotate(-2.94026 341.584 548.277)" fill="#FFB71A"/>
<rect x="341.584" y="548.277" width="90" height="10" rx="5" transform="rotate(-2.94026 341.584 548.277)" fill="#FFB71A"/>
<rect x="341.584" y="548.277" width="90" height="10" rx="5" transform="rotate(-2.94026 341.584 548.277)" fill="#FFB71A"/>
<rect x="297.741" y="525.522" width="180" height="10" rx="5" transform="rotate(-2.94026 297.741 525.522)" fill="#FFB71A"/>
<rect x="297.741" y="525.522" width="180" height="10" rx="5" transform="rotate(-2.94026 297.741 525.522)" fill="#FFB71A"/>
<rect x="297.741" y="525.522" width="180" height="10" rx="5" transform="rotate(-2.94026 297.741 525.522)" fill="#FFB71A"/>
<rect x="196.675" y="340.82" width="109" height="10" rx="5" transform="rotate(-2.94026 196.675 340.82)" fill="#FFB71A"/>
<rect x="196.675" y="340.82" width="109" height="10" rx="5" transform="rotate(-2.94026 196.675 340.82)" fill="#FFB71A"/>
<rect x="196.675" y="340.82" width="109" height="10" rx="5" transform="rotate(-2.94026 196.675 340.82)" fill="#FFB71A"/>
<rect x="317.151" y="181.649" width="175" height="8" rx="4" transform="rotate(-2.94026 317.151 181.649)" fill="#FFB71A"/>
<rect x="317.151" y="181.649" width="175" height="8" rx="4" transform="rotate(-2.94026 317.151 181.649)" fill="#FFB71A"/>
<rect x="317.151" y="181.649" width="175" height="8" rx="4" transform="rotate(-2.94026 317.151 181.649)" fill="#FFB71A"/>
<path d="M97.2343 420.142C93.6856 415.933 98.5511 409.917 103.409 412.506L118.709 420.663C120.691 421.72 123.134 421.325 124.682 419.699L137.265 406.482C141.035 402.522 147.515 406.62 145.554 411.723L138.578 429.878C137.874 431.709 138.306 433.784 139.684 435.181L149.707 445.349C153.509 449.206 149.319 455.512 144.29 453.501L128.673 447.258C126.958 446.572 125.006 446.887 123.594 448.078L111.426 458.337C107.254 461.854 101.267 457.097 103.751 452.238L109.994 440.029C110.911 438.236 110.663 436.069 109.365 434.529L97.2343 420.142Z" fill="#FE5858"/>
<path d="M460.134 508.492L473.197 561.116C473.988 564.304 477.586 565.876 480.463 564.29L574.674 512.362C574.926 512.223 575.17 512.059 575.394 511.879C602.751 489.842 611.221 472.991 607.603 431.553C607.58 431.296 607.537 431.034 607.475 430.784L562.669 250.276C549.644 208.44 533.806 194.59 489.659 188.369C489.349 188.325 489.027 188.31 488.714 188.326L334.453 195.994C331.916 196.12 329.695 194.31 329.218 191.815C323.57 162.264 312.729 149.834 281.444 138.369C280.814 138.138 280.13 138.036 279.46 138.073L110.682 147.349C76.6932 152.286 57.714 194.527 63.1131 216.278L81.1081 288.774C81.2399 289.305 81.4541 289.788 81.7509 290.248C93.6877 308.73 102.617 318.023 123.465 331.342L178.647 358.022C182.461 359.866 186.697 356.428 185.676 352.316L178.704 324.226C177.92 321.07 180.31 318.018 183.562 318.021L217.118 318.06C219.413 318.063 221.412 319.628 221.965 321.856L254.983 454.875C255.077 455.254 255.219 455.627 255.398 455.973C274.185 492.202 288.737 505.906 324.555 512.11C324.927 512.174 325.313 512.196 325.689 512.175L454.993 504.705C457.395 504.566 459.555 506.157 460.134 508.492Z" fill="#FB0000"/>
<path d="M336.137 300.429C346.095 256.635 346.607 232.2 330.75 194.814L471.81 188.969L336.137 300.429Z" fill="url(#paint0_linear_205_51)"/>
<path d="M461.596 510.963C461.783 511.381 461.97 511.801 462.157 512.222C462.058 511.779 461.869 511.36 461.596 510.963C444.274 472.34 424.53 451.136 378.943 468.463L350.029 475.64L358.27 508.84C358.27 508.84 452.878 498.312 461.596 510.963Z" fill="url(#paint1_linear_205_51)" fill-opacity="0.5"/>
<path d="M116.534 213.33C113.741 213.523 111.386 213.297 109.471 212.654C107.58 211.983 106.126 211.054 105.109 209.867C104.116 208.653 103.545 207.342 103.395 205.936C103.378 205.696 103.444 205.491 103.593 205.321C103.742 205.15 103.936 205.057 104.175 205.04L110.52 204.603C110.892 204.577 111.19 204.624 111.412 204.742C111.632 204.834 111.869 204.978 112.123 205.174C112.383 205.45 112.681 205.711 113.019 205.955C113.355 206.172 113.781 206.343 114.297 206.468C114.812 206.566 115.402 206.592 116.067 206.547C117.29 206.462 118.224 206.238 118.867 205.873C119.508 205.481 119.809 204.992 119.768 204.407C119.737 203.955 119.525 203.595 119.133 203.328C118.767 203.059 118.15 202.835 117.282 202.654C116.414 202.473 115.24 202.3 113.758 202.135C111.686 201.93 109.882 201.546 108.346 200.984C106.809 200.395 105.602 199.556 104.725 198.467C103.873 197.349 103.388 195.939 103.271 194.237C103.151 192.508 103.525 190.945 104.391 189.549C105.284 188.151 106.569 187.02 108.247 186.156C109.952 185.29 111.961 184.777 114.276 184.618C116.191 184.486 117.898 184.622 119.396 185.027C120.92 185.43 122.217 186.009 123.284 186.764C124.35 187.492 125.181 188.304 125.778 189.198C126.374 190.093 126.714 190.965 126.8 191.814C126.816 192.054 126.738 192.273 126.564 192.472C126.416 192.643 126.235 192.735 126.022 192.75L119.358 193.209C119.039 193.231 118.756 193.197 118.509 193.107C118.289 193.015 118.077 192.856 117.875 192.629C117.716 192.266 117.36 191.956 116.808 191.701C116.256 191.445 115.568 191.345 114.743 191.402C113.838 191.464 113.158 191.671 112.701 192.024C112.242 192.349 112.033 192.805 112.073 193.39C112.101 193.789 112.271 194.125 112.584 194.397C112.896 194.67 113.433 194.9 114.195 195.088C114.954 195.25 116.008 195.418 117.357 195.592C119.91 195.79 121.982 196.182 123.572 196.768C125.19 197.351 126.396 198.177 127.191 199.245C127.986 200.313 128.442 201.685 128.557 203.361C128.687 205.25 128.254 206.91 127.256 208.342C126.259 209.774 124.828 210.928 122.964 211.805C121.125 212.653 118.981 213.162 116.534 213.33ZM133.613 211.753C133.347 211.771 133.102 211.695 132.876 211.523C132.648 211.325 132.525 211.08 132.504 210.787L130.723 184.928C130.703 184.636 130.793 184.389 130.993 184.188C131.191 183.961 131.423 183.838 131.689 183.819L143.342 183.017C145.656 182.857 147.689 183.065 149.439 183.639C151.216 184.212 152.632 185.17 153.687 186.514C154.741 187.858 155.342 189.594 155.489 191.723C155.635 193.851 155.277 195.64 154.415 197.089C153.551 198.512 152.276 199.602 150.591 200.36C148.932 201.115 146.945 201.573 144.631 201.732L140.84 201.993L141.403 210.174C141.423 210.467 141.334 210.727 141.136 210.954C140.963 211.153 140.73 211.263 140.437 211.283L133.613 211.753ZM140.238 195.58L143.989 195.321C144.76 195.268 145.397 194.997 145.897 194.508C146.423 193.991 146.652 193.24 146.584 192.256C146.533 191.511 146.273 190.847 145.806 190.265C145.338 189.682 144.598 189.425 143.588 189.495L139.836 189.753L140.238 195.58ZM161.204 209.853C160.938 209.871 160.692 209.794 160.467 209.623C160.239 209.425 160.115 209.179 160.095 208.887L158.314 183.028C158.294 182.735 158.384 182.488 158.584 182.288C158.782 182.06 159.014 181.937 159.28 181.919L178.834 180.572C179.127 180.552 179.387 180.641 179.614 180.839C179.84 181.011 179.963 181.243 179.983 181.535L180.307 186.244C180.325 186.51 180.236 186.757 180.037 186.984C179.839 187.212 179.594 187.336 179.301 187.356L166.97 188.205L167.243 192.156L178.695 191.367C178.988 191.347 179.248 191.436 179.476 191.634C179.701 191.806 179.824 192.038 179.844 192.33L180.141 196.64C180.161 196.933 180.072 197.193 179.874 197.42C179.674 197.621 179.428 197.732 179.135 197.752L167.682 198.541L167.96 202.571L180.61 201.7C180.903 201.68 181.163 201.769 181.39 201.967C181.618 202.165 181.741 202.411 181.762 202.703L182.083 207.372C182.103 207.665 182.014 207.925 181.816 208.152C181.616 208.353 181.37 208.464 181.077 208.484L161.204 209.853ZM198.122 207.711C195.595 207.885 193.36 207.651 191.418 207.01C189.474 206.342 187.902 205.247 186.701 203.726C185.527 202.203 184.802 200.222 184.527 197.781C184.426 196.693 184.332 195.523 184.246 194.273C184.16 193.022 184.09 191.824 184.038 190.678C183.98 188.277 184.441 186.24 185.422 184.569C186.427 182.869 187.847 181.555 189.681 180.627C191.541 179.697 193.695 179.147 196.143 178.979C197.899 178.858 199.549 178.958 201.095 179.279C202.666 179.572 204.079 180.103 205.335 180.872C206.589 181.614 207.605 182.586 208.382 183.789C209.158 184.965 209.616 186.377 209.757 188.025C209.773 188.264 209.694 188.47 209.519 188.643C209.37 188.813 209.176 188.907 208.936 188.923L202.192 189.388C201.793 189.415 201.495 189.356 201.298 189.209C201.101 189.062 200.922 188.794 200.761 188.404C200.337 187.284 199.778 186.547 199.086 186.194C198.393 185.84 197.568 185.697 196.61 185.763C195.44 185.843 194.53 186.227 193.883 186.913C193.233 187.572 192.936 188.689 192.991 190.262C193.061 192.449 193.215 194.684 193.453 196.966C193.614 198.532 194.062 199.611 194.798 200.201C195.532 200.766 196.484 201.007 197.655 200.927C198.612 200.861 199.409 200.592 200.045 200.121C200.707 199.647 201.16 198.854 201.405 197.742C201.482 197.309 201.609 197.019 201.786 196.873C201.988 196.699 202.288 196.598 202.687 196.571L209.431 196.106C209.671 196.09 209.876 196.156 210.046 196.304C210.243 196.451 210.35 196.644 210.367 196.884C210.454 198.535 210.195 200.01 209.589 201.308C208.982 202.579 208.109 203.682 206.97 204.615C205.83 205.523 204.503 206.242 202.989 206.774C201.5 207.278 199.878 207.59 198.122 207.711ZM215.724 206.097C215.458 206.116 215.212 206.039 214.986 205.868C214.759 205.669 214.635 205.424 214.615 205.131L212.833 179.273C212.813 178.98 212.903 178.733 213.103 178.532C213.301 178.305 213.533 178.182 213.8 178.164L220.583 177.696C220.876 177.676 221.123 177.766 221.324 177.966C221.549 178.138 221.672 178.37 221.692 178.662L223.474 204.521C223.494 204.814 223.405 205.074 223.207 205.301C223.033 205.5 222.8 205.61 222.507 205.63L215.724 206.097ZM227.045 205.318C226.805 205.334 226.587 205.269 226.39 205.122C226.217 204.947 226.123 204.74 226.106 204.5C226.099 204.394 226.119 204.299 226.167 204.215L233.506 178.049C233.566 177.751 233.72 177.46 233.967 177.175C234.242 176.889 234.618 176.73 235.097 176.697L242.4 176.194C242.905 176.159 243.3 176.265 243.585 176.513C243.869 176.761 244.061 177.028 244.161 177.315L255.059 202.225C255.091 202.303 255.11 202.396 255.118 202.502C255.134 202.741 255.056 202.961 254.882 203.16C254.734 203.33 254.54 203.424 254.3 203.44L248.155 203.864C247.703 203.895 247.363 203.811 247.135 203.613C246.908 203.415 246.748 203.225 246.655 203.045L245.187 199.778L235.57 200.44L234.564 203.878C234.497 204.069 234.364 204.279 234.166 204.506C233.994 204.732 233.669 204.861 233.19 204.894L227.045 205.318ZM236.941 193.57L242.887 193.16L239.276 184.388L236.941 193.57ZM258.864 203.126C258.597 203.144 258.352 203.068 258.126 202.896C257.899 202.698 257.775 202.453 257.755 202.16L255.973 176.301C255.953 176.009 256.043 175.762 256.243 175.561C256.441 175.333 256.673 175.211 256.939 175.192L263.564 174.736C263.856 174.716 264.116 174.805 264.344 175.003C264.57 175.175 264.693 175.407 264.713 175.699L266.076 195.492L277.609 194.698C277.901 194.678 278.161 194.767 278.389 194.965C278.615 195.137 278.737 195.369 278.758 195.661L279.104 200.689C279.124 200.982 279.035 201.242 278.837 201.47C278.637 201.67 278.391 201.781 278.098 201.801L258.864 203.126Z" fill="#FFB71A"/>
<g filter="url(#filter0_dd_205_51)">
<path d="M423.985 237.298L432.63 248.708L445.337 241.497L451.386 254.16L465.464 249.356L468.683 262.786L483.591 260.574L483.857 274.254L499.021 274.718L496.325 288.123L511.162 291.246L505.606 303.861L519.548 309.522L511.345 320.862L523.855 328.844L513.322 338.473L523.918 348.469L511.459 356.017L519.736 367.644L505.83 372.821L511.468 385.631L496.649 388.238L499.433 401.739L484.27 401.676L484.092 415.349L469.169 412.619L466.036 425.938L451.925 420.645L445.958 433.1L433.203 425.447L424.63 436.558L413.72 426.84L402.872 436.181L394.226 424.771L381.519 431.982L375.47 419.318L361.392 424.122L358.173 410.693L343.266 412.905L342.999 399.225L327.835 398.761L330.532 385.356L315.694 382.233L321.25 369.618L307.309 363.957L315.511 352.617L303.001 344.635L313.534 335.006L302.938 325.01L315.397 317.461L307.12 305.835L321.027 300.658L315.388 287.848L330.207 285.241L327.424 271.74L342.586 271.803L342.764 258.13L357.688 260.86L360.82 247.541L374.931 252.834L380.898 240.379L393.654 248.032L402.226 236.921L413.136 246.639L423.985 237.298Z" fill="black"/>
<path d="M423.908 238.024L432.232 249.01L432.496 249.359L432.877 249.143L445.118 242.197L450.935 254.376L451.127 254.777L451.548 254.634L465.106 250.007L468.197 262.903L468.304 263.348L468.757 263.281L483.102 261.152L483.357 274.264L483.367 274.739L483.842 274.754L498.414 275.2L495.834 288.025L495.737 288.511L496.222 288.613L510.456 291.608L505.149 303.659L504.941 304.13L505.418 304.324L518.769 309.745L510.94 320.569L510.63 320.998L511.077 321.283L523.036 328.914L512.984 338.104L512.587 338.467L512.979 338.837L523.097 348.382L511.2 355.59L510.74 355.869L511.052 356.307L518.951 367.402L505.655 372.353L505.158 372.537L505.372 373.023L510.754 385.249L496.562 387.746L496.055 387.835L496.159 388.339L498.818 401.236L484.272 401.176L483.776 401.174L483.77 401.67L483.6 414.751L469.259 412.127L468.791 412.041L468.682 412.504L465.679 425.271L452.101 420.177L451.672 420.016L451.474 420.429L445.744 432.389L433.46 425.019L433.078 424.79L432.807 425.142L424.562 435.828L414.053 426.467L413.726 426.176L413.394 426.461L402.949 435.455L394.625 424.469L394.36 424.12L393.979 424.336L381.739 431.282L375.921 419.103L375.73 418.702L375.309 418.845L361.751 423.472L358.659 410.576L358.552 410.131L358.099 410.198L343.754 412.327L343.499 399.215L343.49 398.739L343.014 398.725L328.442 398.279L331.022 385.454L331.12 384.968L330.635 384.866L316.4 381.871L321.708 369.82L321.915 369.348L321.438 369.155L308.087 363.734L315.916 352.91L316.227 352.481L315.78 352.196L303.82 344.565L313.872 335.375L314.269 335.012L313.878 334.642L303.759 325.097L315.656 317.889L316.117 317.61L315.804 317.172L307.906 306.076L321.201 301.126L321.698 300.941L321.484 300.456L316.103 288.23L330.294 285.733L330.801 285.644L330.697 285.14L328.038 272.243L342.584 272.303L343.08 272.305L343.086 271.809L343.257 258.728L357.598 261.352L358.065 261.438L358.174 260.975L361.177 248.208L374.755 253.302L375.184 253.463L375.382 253.05L381.112 241.09L393.396 248.46L393.778 248.689L394.05 248.337L402.294 237.651L412.804 247.012L413.131 247.303L413.463 247.017L423.908 238.024Z" stroke="white"/>
</g>
<path d="M397.716 394.003C395.801 394.135 394.114 393.95 392.656 393.449C391.218 392.947 390.049 392.125 389.148 390.984C388.266 389.822 387.734 388.345 387.55 386.554C387.472 385.717 387.403 384.86 387.343 383.982C387.281 383.084 387.23 382.195 387.189 381.316C387.127 379.536 387.453 378.01 388.167 376.738C388.901 375.465 389.955 374.47 391.33 373.754C392.702 373.018 394.336 372.584 396.232 372.454C398.107 372.325 399.775 372.53 401.236 373.071C402.695 373.592 403.876 374.433 404.778 375.594C405.68 376.755 406.212 378.222 406.374 379.995C406.474 380.87 406.555 381.756 406.617 382.654C406.678 383.532 406.717 384.392 406.735 385.232C406.799 387.032 406.463 388.569 405.729 389.842C405.013 391.094 403.968 392.069 402.592 392.765C401.237 393.459 399.612 393.872 397.716 394.003ZM397.366 388.915C398.204 388.857 398.875 388.56 399.379 388.024C399.882 387.468 400.105 386.631 400.048 385.512C400.029 384.652 399.992 383.822 399.937 383.024C399.881 382.206 399.804 381.379 399.706 380.544C399.635 379.807 399.454 379.208 399.161 378.747C398.889 378.285 398.525 377.959 398.071 377.77C397.637 377.579 397.141 377.503 396.582 377.542C396.024 377.58 395.532 377.724 395.108 377.974C394.685 378.224 394.359 378.597 394.133 379.094C393.927 379.589 393.839 380.207 393.87 380.946C393.908 381.786 393.955 382.614 394.011 383.432C394.066 384.23 394.133 385.058 394.212 385.914C394.329 387.029 394.665 387.828 395.219 388.311C395.792 388.773 396.508 388.974 397.366 388.915ZM411.18 392.775C410.981 392.788 410.796 392.731 410.627 392.602C410.457 392.454 410.364 392.27 410.349 392.05L409.013 372.656C408.998 372.437 409.065 372.251 409.215 372.101C409.364 371.93 409.538 371.838 409.737 371.824L424.163 370.831C424.383 370.815 424.578 370.882 424.748 371.031C424.918 371.16 425.01 371.334 425.025 371.553L425.287 375.354C425.3 375.554 425.233 375.739 425.084 375.909C424.936 376.08 424.752 376.173 424.532 376.188L415.643 376.8L415.87 380.092L424.16 379.521C424.38 379.506 424.575 379.573 424.745 379.722C424.915 379.85 425.007 380.024 425.022 380.244L425.282 384.015C425.297 384.234 425.23 384.429 425.081 384.6C424.931 384.751 424.747 384.834 424.527 384.849L416.237 385.42L416.664 391.615C416.679 391.835 416.612 392.03 416.463 392.2C416.333 392.35 416.159 392.432 415.939 392.447L411.18 392.775ZM430.091 391.472C429.891 391.486 429.707 391.428 429.537 391.3C429.367 391.151 429.274 390.967 429.259 390.748L427.923 371.353C427.908 371.134 427.975 370.949 428.125 370.798C428.274 370.628 428.448 370.535 428.648 370.522L443.073 369.528C443.293 369.513 443.488 369.58 443.659 369.728C443.828 369.857 443.92 370.031 443.935 370.251L444.197 374.052C444.211 374.251 444.143 374.436 443.995 374.607C443.846 374.777 443.662 374.87 443.442 374.885L434.553 375.498L434.78 378.79L443.071 378.219C443.29 378.204 443.485 378.27 443.656 378.419C443.825 378.548 443.917 378.722 443.932 378.941L444.192 382.712C444.207 382.932 444.14 383.127 443.992 383.298C443.842 383.448 443.657 383.531 443.438 383.546L435.147 384.117L435.574 390.313C435.589 390.532 435.522 390.727 435.374 390.898C435.244 391.047 435.069 391.129 434.849 391.144L430.091 391.472Z" fill="#FFB71A"/>
<path d="M338.382 360.1C337.834 360.138 337.348 359.996 336.925 359.674C336.548 359.299 336.341 358.837 336.303 358.288L335.855 351.779C335.831 351.43 335.866 350.851 335.961 350.042C336.105 349.231 336.604 348.47 337.457 347.759L341.513 343.345C345.869 339.637 349.487 336.506 352.369 333.952C355.247 331.348 357.374 329.122 358.75 327.273C360.176 325.42 360.837 323.746 360.734 322.249C360.652 321.052 360.282 320.05 359.625 319.244C359.015 318.383 357.861 318.012 356.165 318.129C354.918 318.215 353.94 318.558 353.229 319.158C352.519 319.758 351.991 320.471 351.647 321.297C351.353 322.119 351.132 322.911 350.984 323.673C350.829 324.335 350.511 324.808 350.029 325.092C349.548 325.376 348.983 325.54 348.334 325.584L336.662 326.388C336.163 326.423 335.754 326.301 335.434 326.022C335.11 325.693 334.933 325.305 334.902 324.856C334.77 322.208 335.154 319.776 336.054 317.559C337 315.289 338.364 313.265 340.146 311.489C341.928 309.712 344.087 308.31 346.623 307.284C349.204 306.204 352.067 305.556 355.209 305.339C359.599 305.037 363.411 305.451 366.647 306.581C369.882 307.711 372.432 309.44 374.296 311.768C376.16 314.095 377.209 316.955 377.443 320.347C377.622 322.941 377.19 325.401 376.147 327.728C375.105 330.055 373.556 332.317 371.502 334.513C369.445 336.66 366.994 338.909 364.149 341.26L360.73 345.104L378.238 343.898C378.787 343.86 379.25 344.029 379.626 344.404C380.053 344.775 380.285 345.235 380.323 345.784L380.972 355.212C381.01 355.76 380.843 356.248 380.471 356.675C380.146 357.048 379.709 357.253 379.161 357.291L338.382 360.1ZM410.395 355.891C406.704 356.146 403.452 355.868 400.64 355.06C397.828 354.251 395.439 353.037 393.473 351.419C391.557 349.797 390.019 347.848 388.86 345.572C387.698 343.246 386.922 340.719 386.534 337.989C386.391 336.645 386.231 335.053 386.054 333.21C385.927 331.365 385.8 329.519 385.673 327.674C385.592 325.775 385.529 324.125 385.482 322.725C385.493 319.968 385.918 317.407 386.757 315.044C387.644 312.628 388.976 310.506 390.755 308.679C392.53 306.803 394.732 305.298 397.36 304.165C399.985 302.982 403.093 302.266 406.685 302.019C410.226 301.775 413.378 302.059 416.14 302.871C418.949 303.63 421.337 304.819 423.302 306.438C425.315 308.003 426.901 309.924 428.06 312.199C429.265 314.422 430.062 316.898 430.451 319.628C430.647 321.017 430.81 322.66 430.941 324.556C431.068 326.401 431.195 328.247 431.322 330.092C431.449 331.938 431.509 333.538 431.502 334.891C431.492 337.649 431.07 340.259 430.237 342.722C429.451 345.132 428.195 347.273 426.47 349.146C424.744 351.019 422.544 352.549 419.869 353.735C417.195 354.922 414.037 355.641 410.395 355.891ZM409.514 343.097C411.509 342.959 412.886 342.213 413.645 340.858C414.453 339.499 414.835 337.768 414.791 335.667C414.741 334.217 414.658 332.644 414.541 330.948C414.474 329.248 414.357 327.552 414.191 325.86C414.07 324.114 413.939 322.569 413.796 321.226C413.559 319.237 412.972 317.624 412.034 316.385C411.094 315.097 409.599 314.498 407.55 314.589C405.509 314.78 404.11 315.578 403.355 316.983C402.596 318.339 402.236 320.017 402.273 322.019C402.316 323.37 402.373 324.919 402.443 326.669C402.56 328.365 402.677 330.061 402.794 331.757C402.961 333.449 403.119 335.017 403.268 336.46C403.512 338.548 404.103 340.212 405.04 341.45C406.027 342.685 407.519 343.234 409.514 343.097ZM445.003 352.756C443.856 352.835 443.248 352.376 443.179 351.378C443.158 351.079 443.239 350.797 443.422 350.534L476.959 299.359C477.278 298.886 477.603 298.513 477.935 298.239C478.317 297.962 478.857 297.8 479.555 297.752L486.139 297.298C487.287 297.219 487.895 297.678 487.963 298.676C487.984 298.975 487.903 299.257 487.721 299.52L454.108 350.7C453.79 351.173 453.465 351.547 453.133 351.82C452.801 352.093 452.286 352.254 451.587 352.302L445.003 352.756ZM484.161 350.435C480.719 350.672 477.864 349.966 475.595 348.318C473.377 346.667 472.064 344.351 471.659 341.372C471.47 340.082 471.341 338.938 471.272 337.941C471.25 336.89 471.215 335.664 471.169 334.264C471.159 331.208 472.09 328.713 473.961 326.78C475.883 324.843 478.664 323.749 482.306 323.498C485.947 323.248 488.827 323.951 490.946 325.61C493.115 327.265 494.379 329.608 494.738 332.641C494.934 334.031 495.068 335.249 495.14 336.297C495.209 337.294 495.238 338.445 495.228 339.749C495.284 342.752 494.302 345.225 492.281 347.169C490.309 349.109 487.603 350.198 484.161 350.435ZM483.656 343.102C484.304 343.057 484.795 342.898 485.127 342.625C485.455 342.301 485.704 341.908 485.872 341.446C486.038 340.933 486.103 340.428 486.069 339.929C486.096 338.874 486.074 337.823 486.002 336.776C485.93 335.728 485.809 334.709 485.641 333.718C485.536 332.924 485.263 332.241 484.823 331.67C484.383 331.099 483.714 330.844 482.816 330.906C481.868 330.971 481.215 331.317 480.858 331.943C480.5 332.569 480.323 333.283 480.328 334.084C480.347 335.085 480.393 336.11 480.465 337.157C480.537 338.205 480.634 339.251 480.756 340.295C480.84 340.79 480.975 341.282 481.159 341.77C481.389 342.206 481.689 342.561 482.059 342.836C482.475 343.058 483.007 343.147 483.656 343.102ZM449.056 326.465C445.614 326.702 442.761 326.022 440.495 324.424C438.277 322.772 436.965 320.457 436.559 317.478C436.37 316.188 436.241 315.044 436.172 314.046C436.15 312.995 436.116 311.77 436.069 310.37C436.059 307.313 436.99 304.818 438.862 302.885C440.783 300.948 443.564 299.855 447.206 299.604C450.847 299.353 453.727 300.057 455.846 301.715C458.015 303.37 459.304 305.712 459.713 308.741C459.909 310.131 460.043 311.35 460.115 312.397C460.184 313.395 460.213 314.545 460.203 315.849C460.209 318.856 459.202 321.331 457.181 323.274C455.206 325.165 452.498 326.228 449.056 326.465ZM448.556 319.207C449.205 319.163 449.695 319.004 450.027 318.73C450.355 318.407 450.604 318.014 450.772 317.551C450.938 317.039 451.003 316.533 450.969 316.034C450.996 314.98 450.974 313.929 450.902 312.881C450.83 311.834 450.709 310.815 450.541 309.824C450.436 309.029 450.164 308.346 449.723 307.775C449.333 307.201 448.664 306.946 447.716 307.011C446.768 307.077 446.115 307.422 445.758 308.048C445.4 308.674 445.223 309.388 445.229 310.19C445.247 311.191 445.293 312.215 445.365 313.263C445.437 314.31 445.534 315.356 445.656 316.4C445.741 316.895 445.875 317.387 446.059 317.876C446.289 318.311 446.614 318.665 447.034 318.936C447.45 319.158 447.957 319.249 448.556 319.207Z" fill="white"/>
<path d="M133.383 281.815C130.829 281.991 128.58 281.745 126.637 281.077C124.719 280.407 123.16 279.311 121.96 277.79C120.784 276.241 120.074 274.272 119.829 271.883C119.725 270.767 119.633 269.624 119.552 268.454C119.47 267.257 119.402 266.072 119.348 264.899C119.264 262.526 119.699 260.491 120.651 258.795C121.63 257.097 123.036 255.771 124.868 254.816C126.698 253.835 128.877 253.257 131.404 253.083C133.905 252.911 136.129 253.185 138.077 253.906C140.022 254.601 141.596 255.722 142.799 257.27C144.001 258.818 144.711 260.773 144.927 263.137C145.061 264.304 145.169 265.486 145.252 266.684C145.332 267.854 145.384 269 145.408 270.121C145.493 272.521 145.046 274.57 144.067 276.268C143.113 277.937 141.719 279.236 139.885 280.164C138.078 281.091 135.911 281.641 133.383 281.815ZM132.916 275.031C134.033 274.954 134.928 274.558 135.601 273.844C136.271 273.102 136.569 271.986 136.493 270.494C136.467 269.347 136.418 268.241 136.344 267.177C136.269 266.086 136.167 264.984 136.036 263.87C135.942 262.888 135.7 262.089 135.31 261.474C134.947 260.858 134.463 260.423 133.857 260.171C133.278 259.917 132.616 259.816 131.872 259.867C131.127 259.918 130.472 260.11 129.907 260.443C129.341 260.776 128.908 261.274 128.606 261.936C128.331 262.597 128.214 263.42 128.255 264.406C128.305 265.525 128.368 266.63 128.443 267.721C128.516 268.785 128.606 269.888 128.711 271.03C128.867 272.517 129.315 273.582 130.054 274.226C130.818 274.841 131.772 275.11 132.916 275.031ZM151.336 280.177C151.07 280.196 150.824 280.119 150.598 279.948C150.371 279.749 150.247 279.504 150.227 279.211L148.446 253.353C148.425 253.06 148.515 252.813 148.715 252.612C148.914 252.385 149.146 252.262 149.412 252.244L168.646 250.919C168.939 250.899 169.199 250.988 169.426 251.186C169.652 251.357 169.775 251.589 169.795 251.882L170.144 256.95C170.162 257.216 170.072 257.463 169.874 257.69C169.676 257.918 169.431 258.042 169.138 258.062L157.286 258.878L157.589 263.268L168.642 262.506C168.935 262.486 169.195 262.575 169.423 262.773C169.648 262.945 169.771 263.177 169.791 263.47L170.138 268.498C170.158 268.79 170.069 269.05 169.871 269.278C169.671 269.479 169.424 269.589 169.132 269.61L158.078 270.371L158.647 278.631C158.667 278.924 158.578 279.184 158.38 279.412C158.206 279.611 157.973 279.72 157.681 279.74L151.336 280.177ZM176.549 278.441C176.283 278.459 176.038 278.382 175.812 278.211C175.584 278.013 175.461 277.767 175.44 277.475L173.659 251.616C173.639 251.323 173.729 251.076 173.929 250.876C174.127 250.648 174.359 250.525 174.625 250.507L193.86 249.182C194.152 249.162 194.413 249.251 194.64 249.449C194.866 249.621 194.989 249.853 195.009 250.145L195.358 255.213C195.376 255.479 195.286 255.726 195.088 255.954C194.89 256.181 194.644 256.305 194.352 256.325L182.5 257.141L182.802 261.531L193.856 260.77C194.149 260.75 194.409 260.839 194.636 261.037C194.862 261.208 194.985 261.44 195.005 261.733L195.351 266.761C195.371 267.054 195.282 267.314 195.084 267.541C194.884 267.742 194.638 267.853 194.345 267.873L183.292 268.634L183.86 276.895C183.881 277.187 183.792 277.447 183.593 277.675C183.42 277.874 183.187 277.983 182.894 278.004L176.549 278.441ZM201.763 276.704C201.497 276.722 201.251 276.646 201.026 276.474C200.798 276.276 200.674 276.031 200.654 275.738L198.873 249.879C198.853 249.587 198.943 249.34 199.143 249.139C199.341 248.911 199.573 248.788 199.839 248.77L219.393 247.423C219.685 247.403 219.945 247.492 220.173 247.69C220.399 247.862 220.522 248.094 220.542 248.387L220.866 253.096C220.884 253.362 220.794 253.608 220.596 253.836C220.398 254.063 220.153 254.187 219.86 254.207L207.529 255.057L207.801 259.007L219.254 258.218C219.547 258.198 219.807 258.287 220.034 258.485C220.26 258.657 220.383 258.889 220.403 259.182L220.7 263.491C220.72 263.784 220.631 264.044 220.433 264.272C220.233 264.473 219.987 264.583 219.694 264.603L208.241 265.392L208.519 269.423L221.169 268.551C221.461 268.531 221.721 268.62 221.949 268.818C222.176 269.016 222.3 269.262 222.32 269.554L222.642 274.223C222.662 274.516 222.573 274.776 222.375 275.004C222.175 275.204 221.929 275.315 221.636 275.335L201.763 276.704ZM227.834 274.908C227.568 274.927 227.322 274.85 227.097 274.678C226.869 274.48 226.745 274.235 226.725 273.942L224.944 248.083C224.924 247.791 225.014 247.544 225.214 247.343C225.412 247.116 225.644 246.993 225.91 246.974L237.283 246.191C240.901 245.942 243.791 246.571 245.953 248.08C248.142 249.586 249.338 251.816 249.542 254.769C249.67 256.631 249.353 258.243 248.592 259.606C247.83 260.968 246.783 262.069 245.451 262.909L251.288 271.97C251.378 272.124 251.428 272.267 251.438 272.4C251.454 272.64 251.389 272.858 251.242 273.055C251.094 273.226 250.9 273.32 250.66 273.336L243.916 273.801C243.411 273.835 243.017 273.742 242.734 273.521C242.45 273.273 242.26 273.046 242.166 272.839L237.609 264.893L234.736 265.091L235.305 273.351C235.325 273.644 235.236 273.904 235.038 274.131C234.864 274.33 234.631 274.44 234.339 274.46L227.834 274.908ZM234.282 258.506L238.073 258.245C239.004 258.181 239.679 257.881 240.096 257.344C240.512 256.781 240.693 256.114 240.64 255.342C240.585 254.544 240.312 253.881 239.821 253.354C239.357 252.824 238.646 252.593 237.689 252.658L233.898 252.92L234.282 258.506Z" fill="white"/>
<ellipse cx="204.944" cy="552.381" rx="10" ry="12" transform="rotate(51.0597 204.944 552.381)" fill="#FFB71A"/>
<rect x="317.528" y="448.503" width="250" height="40" rx="20" transform="rotate(-3.94026 317.528 448.503)" fill="#1DBF73"/>
<path d="M337.589 476.027C337.439 476.037 337.303 475.997 337.18 475.905C337.072 475.796 337.013 475.666 337.003 475.516C336.998 475.45 337.011 475.39 337.04 475.338L341.628 458.984C341.665 458.798 341.761 458.616 341.916 458.438C342.087 458.259 342.322 458.16 342.622 458.139L347.186 457.825C347.502 457.803 347.749 457.869 347.926 458.024C348.104 458.179 348.224 458.346 348.287 458.526L355.098 474.094C355.118 474.143 355.13 474.201 355.135 474.267C355.145 474.417 355.096 474.554 354.988 474.678C354.895 474.785 354.773 474.844 354.624 474.854L350.783 475.118C350.5 475.138 350.288 475.086 350.146 474.962C350.003 474.838 349.903 474.72 349.845 474.607L348.928 472.565L342.917 472.979L342.288 475.127C342.246 475.247 342.164 475.378 342.04 475.52C341.933 475.661 341.729 475.742 341.43 475.763L337.589 476.027ZM343.774 468.685L347.49 468.429L345.233 462.946L343.774 468.685ZM363.987 474.46C362.407 474.568 361.011 474.422 359.797 474.021C358.582 473.604 357.599 472.92 356.849 471.969C356.115 471.017 355.662 469.779 355.49 468.254C355.427 467.573 355.368 466.842 355.314 466.061C355.26 465.279 355.217 464.53 355.185 463.814C355.148 462.313 355.436 461.04 356.049 459.996C356.678 458.933 357.565 458.112 358.711 457.532C359.874 456.951 361.22 456.607 362.75 456.502C363.847 456.426 364.879 456.489 365.845 456.69C366.827 456.873 367.71 457.205 368.495 457.685C369.279 458.149 369.914 458.757 370.4 459.509C370.885 460.244 371.171 461.126 371.259 462.156C371.269 462.305 371.219 462.434 371.11 462.542C371.017 462.649 370.896 462.707 370.746 462.717L366.531 463.008C366.282 463.025 366.095 462.988 365.972 462.896C365.849 462.804 365.737 462.636 365.637 462.393C365.371 461.693 365.022 461.232 364.589 461.011C364.156 460.791 363.641 460.701 363.042 460.742C362.31 460.792 361.742 461.032 361.337 461.461C360.931 461.873 360.746 462.571 360.78 463.554C360.824 464.921 360.92 466.318 361.069 467.744C361.169 468.723 361.45 469.397 361.91 469.766C362.368 470.119 362.963 470.27 363.695 470.22C364.293 470.178 364.791 470.01 365.189 469.716C365.603 469.42 365.886 468.924 366.039 468.229C366.087 467.958 366.166 467.777 366.277 467.686C366.403 467.577 366.591 467.514 366.84 467.497L371.055 467.207C371.205 467.196 371.333 467.238 371.44 467.331C371.563 467.422 371.63 467.543 371.64 467.693C371.694 468.725 371.532 469.646 371.154 470.458C370.774 471.252 370.229 471.941 369.517 472.525C368.804 473.092 367.975 473.542 367.029 473.874C366.098 474.189 365.084 474.384 363.987 474.46ZM378.854 473.185C378.671 473.198 378.509 473.15 378.368 473.043C378.242 472.918 378.173 472.764 378.161 472.581L377.322 460.41L373.033 460.705C372.85 460.718 372.688 460.671 372.547 460.563C372.421 460.438 372.352 460.285 372.339 460.102L372.109 456.76C372.097 456.577 372.144 456.423 372.253 456.299C372.377 456.156 372.53 456.079 372.713 456.066L386.73 455.101C386.913 455.088 387.067 455.145 387.192 455.27C387.333 455.377 387.41 455.522 387.423 455.705L387.653 459.047C387.666 459.23 387.61 459.392 387.486 459.534C387.378 459.659 387.232 459.727 387.049 459.74L382.759 460.035L383.598 472.207C383.61 472.39 383.555 472.552 383.431 472.694C383.323 472.819 383.177 472.887 382.994 472.9L378.854 473.185ZM391.258 472.331C391.092 472.342 390.938 472.294 390.797 472.187C390.655 472.063 390.577 471.91 390.565 471.727L389.452 455.565C389.439 455.382 389.495 455.228 389.62 455.102C389.744 454.96 389.889 454.883 390.055 454.872L394.295 454.58C394.478 454.567 394.633 454.623 394.758 454.748C394.899 454.856 394.976 455.001 394.989 455.184L396.102 471.345C396.114 471.528 396.059 471.691 395.935 471.833C395.827 471.957 395.681 472.026 395.498 472.038L391.258 472.331ZM404.145 471.443C403.846 471.463 403.599 471.397 403.405 471.243C403.227 471.088 403.107 470.921 403.044 470.742L397.031 455.118C397.01 455.053 396.998 454.995 396.995 454.945C396.984 454.796 397.025 454.667 397.118 454.561C397.227 454.436 397.356 454.369 397.505 454.359L401.371 454.092C401.671 454.072 401.909 454.139 402.087 454.294C402.265 454.449 402.384 454.607 402.445 454.77L406.105 464.968L408.331 454.365C408.37 454.195 408.466 454.021 408.621 453.844C408.776 453.666 409.003 453.567 409.302 453.546L413.168 453.28C413.318 453.27 413.447 453.319 413.554 453.429C413.661 453.522 413.72 453.643 413.73 453.793C413.733 453.842 413.729 453.901 413.717 453.969L409.928 470.268C409.891 470.454 409.786 470.637 409.615 470.816C409.46 470.993 409.225 471.093 408.909 471.115L404.145 471.443ZM414.604 470.722C414.454 470.733 414.318 470.692 414.195 470.6C414.087 470.491 414.028 470.361 414.017 470.212C414.013 470.145 414.025 470.086 414.055 470.034L418.642 453.68C418.68 453.493 418.776 453.311 418.93 453.134C419.102 452.955 419.337 452.855 419.637 452.834L424.201 452.52C424.517 452.498 424.764 452.565 424.941 452.72C425.119 452.874 425.239 453.042 425.302 453.221L432.112 468.79C432.133 468.839 432.145 468.896 432.149 468.963C432.16 469.112 432.111 469.249 432.002 469.374C431.909 469.48 431.788 469.539 431.639 469.549L427.798 469.814C427.515 469.833 427.303 469.781 427.16 469.657C427.018 469.533 426.918 469.415 426.86 469.302L425.943 467.26L419.932 467.674L419.303 469.822C419.261 469.942 419.178 470.073 419.055 470.215C418.947 470.356 418.744 470.437 418.445 470.458L414.604 470.722ZM420.789 463.38L424.505 463.124L422.248 457.641L420.789 463.38ZM436.603 469.207C436.42 469.22 436.258 469.173 436.117 469.065C435.991 468.94 435.922 468.786 435.91 468.603L435.071 456.432L430.781 456.728C430.599 456.74 430.437 456.693 430.296 456.586C430.17 456.461 430.101 456.307 430.088 456.124L429.858 452.782C429.846 452.599 429.893 452.445 430.002 452.321C430.126 452.179 430.279 452.101 430.462 452.089L444.479 451.123C444.662 451.111 444.816 451.167 444.941 451.292C445.082 451.399 445.159 451.544 445.172 451.727L445.402 455.069C445.415 455.252 445.359 455.415 445.235 455.557C445.127 455.681 444.981 455.75 444.798 455.762L440.508 456.058L441.347 468.229C441.359 468.412 441.304 468.574 441.18 468.717C441.071 468.841 440.926 468.909 440.743 468.922L436.603 469.207ZM449.007 468.353C448.841 468.364 448.687 468.316 448.546 468.209C448.404 468.085 448.326 467.932 448.314 467.749L447.201 451.587C447.188 451.404 447.244 451.25 447.369 451.125C447.493 450.982 447.638 450.906 447.804 450.894L452.044 450.602C452.227 450.59 452.381 450.646 452.507 450.771C452.648 450.878 452.725 451.023 452.737 451.206L453.851 467.368C453.863 467.551 453.808 467.713 453.684 467.855C453.575 467.98 453.43 468.048 453.247 468.061L449.007 468.353ZM464.53 467.534C462.934 467.644 461.528 467.49 460.313 467.073C459.115 466.654 458.141 465.97 457.39 465.019C456.655 464.05 456.211 462.82 456.058 461.327C455.994 460.629 455.936 459.915 455.886 459.183C455.834 458.435 455.792 457.695 455.758 456.962C455.706 455.479 455.977 454.207 456.573 453.147C457.184 452.086 458.063 451.257 459.208 450.66C460.352 450.047 461.713 449.686 463.293 449.577C464.856 449.469 466.246 449.641 467.463 450.091C468.679 450.526 469.663 451.226 470.415 452.194C471.166 453.161 471.61 454.383 471.745 455.861C471.829 456.59 471.896 457.329 471.948 458.077C471.998 458.809 472.031 459.525 472.045 460.225C472.099 461.725 471.819 463.006 471.208 464.067C470.611 465.111 469.74 465.922 468.594 466.503C467.464 467.082 466.11 467.425 464.53 467.534ZM464.238 463.294C464.936 463.246 465.496 462.999 465.916 462.552C466.335 462.089 466.521 461.391 466.473 460.459C466.457 459.742 466.426 459.051 466.381 458.385C466.334 457.704 466.27 457.015 466.188 456.319C466.129 455.705 465.978 455.206 465.734 454.821C465.507 454.436 465.205 454.165 464.826 454.007C464.464 453.848 464.051 453.785 463.585 453.817C463.12 453.849 462.71 453.969 462.357 454.177C462.004 454.385 461.733 454.696 461.544 455.11C461.372 455.523 461.299 456.037 461.325 456.654C461.356 457.353 461.395 458.044 461.442 458.726C461.488 459.391 461.544 460.08 461.61 460.794C461.707 461.723 461.987 462.388 462.449 462.791C462.927 463.176 463.523 463.344 464.238 463.294ZM475.75 466.511C475.584 466.522 475.43 466.474 475.289 466.367C475.147 466.243 475.07 466.09 475.057 465.907L473.944 449.745C473.931 449.562 473.987 449.408 474.112 449.283C474.236 449.14 474.381 449.064 474.548 449.052L477.865 448.824C478.164 448.803 478.385 448.863 478.529 449.003C478.671 449.127 478.769 449.221 478.824 449.284L484.53 457.185L483.97 449.055C483.958 448.872 484.014 448.718 484.139 448.592C484.263 448.45 484.408 448.373 484.574 448.362L488.34 448.102C488.523 448.09 488.677 448.146 488.803 448.271C488.944 448.378 489.021 448.523 489.033 448.706L490.146 464.868C490.159 465.051 490.103 465.213 489.979 465.355C489.871 465.48 489.725 465.548 489.543 465.561L486.25 465.788C485.934 465.809 485.705 465.758 485.563 465.634C485.42 465.494 485.321 465.392 485.267 465.329L479.593 457.901L480.12 465.558C480.133 465.741 480.077 465.904 479.953 466.046C479.845 466.17 479.699 466.239 479.516 466.251L475.75 466.511ZM498.937 464.914C498.771 464.925 498.618 464.877 498.477 464.77C498.334 464.646 498.257 464.493 498.244 464.31L497.131 448.148C497.119 447.965 497.175 447.811 497.3 447.685C497.424 447.543 497.569 447.466 497.735 447.455L509.756 446.627C509.939 446.614 510.102 446.67 510.244 446.794C510.385 446.901 510.462 447.046 510.475 447.229L510.693 450.397C510.704 450.563 510.648 450.717 510.524 450.859C510.4 451.001 510.247 451.079 510.064 451.091L502.657 451.602L502.845 454.345L509.754 453.869C509.937 453.857 510.1 453.912 510.242 454.036C510.383 454.143 510.46 454.288 510.472 454.471L510.689 457.614C510.701 457.797 510.646 457.959 510.522 458.102C510.397 458.227 510.243 458.296 510.06 458.309L503.151 458.785L503.507 463.947C503.519 464.13 503.464 464.293 503.34 464.435C503.232 464.559 503.086 464.628 502.903 464.641L498.937 464.914ZM514.696 463.828C514.53 463.84 514.376 463.792 514.235 463.685C514.093 463.561 514.016 463.407 514.003 463.224L512.89 447.063C512.877 446.88 512.933 446.726 513.058 446.6C513.182 446.458 513.327 446.381 513.494 446.37L525.715 445.528C525.897 445.515 526.06 445.571 526.202 445.695C526.343 445.802 526.42 445.947 526.433 446.13L526.635 449.073C526.647 449.239 526.591 449.393 526.467 449.536C526.343 449.678 526.189 449.755 526.007 449.768L518.3 450.299L518.47 452.768L525.628 452.275C525.811 452.262 525.973 452.318 526.116 452.442C526.257 452.549 526.333 452.694 526.346 452.877L526.532 455.57C526.544 455.753 526.489 455.916 526.365 456.058C526.24 456.184 526.086 456.253 525.903 456.265L518.745 456.758L518.918 459.277L526.825 458.733C527.007 458.72 527.17 458.776 527.312 458.9C527.454 459.023 527.532 459.177 527.544 459.36L527.745 462.278C527.758 462.461 527.702 462.623 527.578 462.765C527.453 462.891 527.3 462.96 527.117 462.973L514.696 463.828ZM530.99 462.706C530.824 462.717 530.671 462.669 530.529 462.562C530.387 462.438 530.31 462.285 530.297 462.102L529.184 445.94C529.172 445.757 529.228 445.603 529.353 445.478C529.477 445.336 529.622 445.259 529.788 445.247L542.009 444.405C542.192 444.393 542.354 444.449 542.497 444.572C542.638 444.68 542.714 444.825 542.727 445.008L542.93 447.951C542.941 448.117 542.885 448.271 542.761 448.413C542.637 448.555 542.484 448.633 542.301 448.645L534.594 449.176L534.764 451.645L541.922 451.152C542.105 451.14 542.268 451.195 542.41 451.319C542.551 451.426 542.628 451.572 542.64 451.754L542.826 454.448C542.839 454.631 542.783 454.794 542.659 454.936C542.534 455.061 542.38 455.13 542.197 455.143L535.039 455.636L535.213 458.155L543.119 457.61C543.302 457.598 543.464 457.653 543.607 457.777C543.749 457.901 543.826 458.055 543.839 458.237L544.04 461.156C544.052 461.338 543.997 461.501 543.873 461.643C543.748 461.769 543.594 461.838 543.411 461.85L530.99 462.706Z" fill="white"/>
<ellipse cx="434.749" cy="120.114" rx="12.5" ry="15" transform="rotate(51.0597 434.749 120.114)" fill="#FE5858"/>
<path d="M518.351 149.833C524.039 156.872 534.778 156.488 542.094 150.576C549.409 144.664 552.04 134.246 546.352 127.207C540.665 120.168 529.926 120.553 522.61 126.464C515.294 132.376 512.664 142.795 518.351 149.833Z" stroke="#FFB71A" stroke-width="6"/>
<path d="M518.351 149.833C524.039 156.872 534.778 156.488 542.094 150.576C549.409 144.664 552.04 134.246 546.352 127.207C540.665 120.168 529.926 120.553 522.61 126.464C515.294 132.376 512.664 142.795 518.351 149.833Z" stroke="#FFB71A" stroke-width="6"/>
<defs>
<filter id="filter0_dd_205_51" x="298.938" y="236.921" width="228.981" height="207.638" filterUnits="userSpaceOnUse" color-interpolation-filters="sRGB">
<feFlood flood-opacity="0" result="BackgroundImageFix"/>
<feColorMatrix in="SourceAlpha" type="matrix" values="0 0 0 0 0 0 0 0 0 0 0 0 0 0 0 0 0 0 127 0" result="hardAlpha"/>
<feOffset dy="4"/>
<feGaussianBlur stdDeviation="2"/>
<feComposite in2="hardAlpha" operator="out"/>
<feColorMatrix type="matrix" values="0 0 0 0 0 0 0 0 0 0 0 0 0 0 0 0 0 0 0.25 0"/>
<feBlend mode="normal" in2="BackgroundImageFix" result="effect1_dropShadow_205_51"/>
<feColorMatrix in="SourceAlpha" type="matrix" values="0 0 0 0 0 0 0 0 0 0 0 0 0 0 0 0 0 0 127 0" result="hardAlpha"/>
<feOffset dy="4"/>
<feGaussianBlur stdDeviation="2"/>
<feComposite in2="hardAlpha" operator="out"/>
<feColorMatrix type="matrix" values="0 0 0 0 0 0 0 0 0 0 0 0 0 0 0 0 0 0 0.25 0"/>
<feBlend mode="normal" in2="effect1_dropShadow_205_51" result="effect2_dropShadow_205_51"/>
<feBlend mode="normal" in="SourceGraphic" in2="effect2_dropShadow_205_51" result="shape"/>
</filter>
<linearGradient id="paint0_linear_205_51" x1="322.517" y1="210.227" x2="365.862" y2="224.767" gradientUnits="userSpaceOnUse">
<stop stop-opacity="0.5"/>
<stop offset="1" stop-opacity="0"/>
</linearGradient>
<linearGradient id="paint1_linear_205_51" x1="472.247" y1="486.626" x2="403.06" y2="485.739" gradientUnits="userSpaceOnUse">
<stop/>
<stop offset="1" stop-opacity="0"/>
</linearGradient>
</defs>
</svg>
