<svg width="190" height="76" viewBox="0 0 190 76" fill="none" xmlns="http://www.w3.org/2000/svg">
<mask id="mask0_30_2" style="mask-type:luminance" maskUnits="userSpaceOnUse" x="0" y="0" width="190" height="76">
<path d="M0 0H190V75.624H0V0Z" fill="white"/>
</mask>
<g mask="url(#mask0_30_2)">
<path d="M186.183 75.5809H3.82832C1.71552 75.5809 0 74.2152 0 72.5334V3.105C0 1.42024 1.71552 0.0574951 3.82832 0.0574951H186.183C188.295 0.0574951 190.011 1.42024 190.011 3.105V72.5334C190.011 74.2152 188.295 75.5809 186.183 75.5809Z" fill="black"/>
</g>
<path d="M18.3471 16.9518C17.9343 16.2253 17.9343 15.4989 18.4296 15.0366C18.7599 14.5743 19.4203 14.3101 20.3284 14.3101C20.411 14.3101 20.5761 14.244 20.5761 14.112C20.5761 13.9799 20.411 13.8478 20.3284 13.8478H3.57765C3.41254 13.8478 3.32999 13.9799 3.32999 14.112C3.32999 14.244 3.41254 14.3101 3.57765 14.3101C5.47641 14.3101 7.70146 15.5649 8.44445 17.1499L30.3961 61.1157C30.4787 61.2478 30.5613 61.2478 30.7264 61.2478C30.7264 61.2478 30.7264 61.2478 30.8089 61.2478H30.8915C30.8915 61.1817 30.8915 61.1817 30.8915 61.1817H30.974C30.974 61.1157 30.974 61.1157 30.974 61.1157L35.5971 51.8068C35.6796 51.7407 35.6796 51.6747 35.5971 51.6086L18.3471 16.9518ZM81.2302 13.8478H73.8042C73.6391 13.8478 73.5565 13.9799 73.5565 14.112C73.5565 14.244 73.6391 14.3101 73.8042 14.3101C74.7084 14.3101 75.3688 14.5743 75.699 15.0366C76.1118 15.4989 76.1944 16.2253 75.7816 16.9518L58.7832 51.1463L47.3946 28.2389L52.9257 17.1499C53.6687 15.5649 55.8938 14.3101 57.8751 14.3101C57.9576 14.3101 58.1227 14.244 58.1227 14.112C58.1227 13.9799 57.9576 13.8478 57.8751 13.8478H54.0815H50.4491C50.284 13.8478 50.1189 13.9799 50.1189 14.112C50.1189 14.244 50.284 14.3101 50.4491 14.3101C51.2746 14.3101 51.9351 14.5743 52.3478 15.0366C52.7606 15.4989 52.7606 16.2253 52.4304 16.9518L47.0643 27.6445L41.7848 16.9518C41.372 16.2253 41.372 15.4989 41.7848 15.0366C42.1975 14.5743 42.858 14.3101 43.6835 14.3101C43.8486 14.3101 44.0137 14.244 44.0137 14.112C44.0137 13.9799 43.8486 13.8478 43.6835 13.8478H27.0114C26.8463 13.8478 26.6851 13.9799 26.6851 14.112C26.6851 14.244 26.8463 14.3101 27.0114 14.3101C28.9102 14.3101 31.1391 15.5649 31.8821 17.1499L42.115 37.6799C42.115 37.6799 42.115 37.6799 42.1975 37.6799L53.8338 61.1157C53.9164 61.1817 53.9164 61.1817 53.9164 61.1817C53.9164 61.2478 53.9989 61.2478 53.9989 61.2478C54.0815 61.2478 54.0815 61.2478 54.0815 61.2478C54.164 61.2478 54.164 61.2478 54.164 61.2478H54.2466C54.2466 61.2478 54.2466 61.2478 54.3291 61.2478C54.3291 61.1817 54.3291 61.1817 54.3291 61.1817C54.4117 61.1157 54.4117 61.1157 54.4117 61.1157L58.5355 52.7314L59.0308 51.8068L76.3595 17.1499C77.1025 15.5649 79.3314 14.3101 81.2302 14.3101C81.3953 14.3101 81.5604 14.244 81.5604 14.112C81.5604 13.9799 81.3953 13.8478 81.2302 13.8478Z" fill="#1DBF73"/>
<mask id="mask1_30_2" style="mask-type:luminance" maskUnits="userSpaceOnUse" x="57" y="11" width="29" height="53">
<path d="M57.2031 11.8422H85.8411V63.7302H57.2031V11.8422Z" fill="white"/>
</mask>
<g mask="url(#mask1_30_2)">
<path d="M93.1462 5.31302V62.5284C93.1462 63.1925 92.4976 63.7301 91.6963 63.7301H58.6807C57.8794 63.7301 57.2308 63.1925 57.2308 62.5284V5.31302C57.2308 4.64889 57.8794 4.11127 58.6807 4.11127H91.6963C92.4976 4.11127 93.1462 4.64889 93.1462 5.31302Z" fill="black"/>
</g>
<path d="M64.6297 43.0187H72.4969C74.6059 43.0187 76.3264 43.4873 77.6584 44.4217C78.9904 45.3589 79.6564 46.6929 79.6564 48.4237C79.6564 49.7663 79.247 50.8904 78.4354 51.7932C77.6306 52.6988 76.5379 53.3342 75.1609 53.7022L82.7227 61.2347H76.3541L69.6386 54.0357V61.2347H64.6297V43.0187ZM69.6386 51.1032H70.2214C70.6827 51.1032 71.0712 51.0974 71.3869 51.0802C71.7094 51.0658 72.0737 51.0169 72.483 50.9307C72.8992 50.8387 73.2322 50.7122 73.482 50.5512C73.7317 50.3902 73.9433 50.1573 74.1202 49.8497C74.2937 49.5363 74.3839 49.1597 74.3839 48.7227C74.3839 48.2799 74.2937 47.9033 74.1202 47.5957C73.9433 47.2823 73.7317 47.0437 73.482 46.8827C73.2322 46.7217 72.8992 46.6009 72.483 46.5147C72.0737 46.4227 71.7094 46.3709 71.3869 46.3537C71.0712 46.3393 70.6827 46.3307 70.2214 46.3307H69.6386V51.1032Z" fill="#1DBF73"/>
<path d="M88.7128 43.0187V61.2347H83.7039V43.0187H88.7128Z" fill="#1DBF73"/>
<path d="M90.5216 46.6642V43.0187H105.978V46.6642H100.761V61.2347H95.7525V46.6642H90.5216Z" fill="#1DBF73"/>
<path d="M120.357 43.0187V46.6642H112.795V50.2867H120.038V53.9207H112.795V57.5892H120.357V61.2347H107.786V43.0187H120.357Z" fill="#1DBF73"/>
<path d="M123.238 43.0187H131.105C133.214 43.0187 134.934 43.4873 136.266 44.4217C137.598 45.3589 138.264 46.6929 138.264 48.4237C138.264 49.7663 137.855 50.8904 137.043 51.7932C136.239 52.6988 135.146 53.3342 133.769 53.7022L141.331 61.2347H134.962L128.247 54.0357V61.2347H123.238V43.0187ZM128.247 51.1032H128.829C129.291 51.1032 129.679 51.0974 129.995 51.0802C130.317 51.0658 130.682 51.0169 131.091 50.9307C131.507 50.8387 131.84 50.7122 132.09 50.5512C132.34 50.3902 132.551 50.1573 132.728 49.8497C132.902 49.5363 132.992 49.1597 132.992 48.7227C132.992 48.2799 132.902 47.9033 132.728 47.5957C132.551 47.2823 132.34 47.0437 132.09 46.8827C131.84 46.7217 131.507 46.6009 131.091 46.5147C130.682 46.4227 130.317 46.3709 129.995 46.3537C129.679 46.3393 129.291 46.3307 128.829 46.3307H128.247V51.1032Z" fill="#1DBF73"/>
<path d="M150.415 42.6851C151.608 42.6851 152.767 42.8317 153.898 43.1221C155.035 43.4067 155.882 43.6914 156.437 43.9731L157.228 44.4101L155.202 47.7221C155.042 47.6301 154.82 47.5151 154.536 47.3771C154.258 47.2391 153.724 47.0551 152.94 46.8251C152.163 46.5894 151.435 46.4686 150.762 46.4686C149.929 46.4686 149.284 46.6152 148.833 46.9056C148.379 47.1989 148.153 47.5956 148.153 48.1016C148.153 48.3489 148.257 48.5789 148.472 48.7916C148.684 49.0072 149.045 49.2372 149.555 49.4816C150.071 49.7202 150.526 49.9157 150.914 50.0681C151.31 50.2147 151.917 50.4332 152.732 50.7236C154.154 51.2239 155.368 51.9052 156.367 52.7706C157.366 53.6302 157.866 54.6049 157.866 55.6916C157.866 56.7352 157.637 57.6466 157.186 58.4286C156.742 59.2106 156.121 59.8259 155.327 60.2686C154.539 60.7056 153.665 61.0334 152.704 61.2461C151.74 61.4589 150.699 61.5681 149.582 61.5681C148.628 61.5681 147.688 61.4876 146.766 61.3266C145.84 61.1656 145.066 60.9644 144.449 60.7171C143.828 60.4727 143.269 60.2341 142.77 60.0041C142.27 59.7684 141.903 59.5671 141.674 59.4061L141.327 59.1646L143.838 55.6686C144.05 55.8152 144.341 56.0021 144.712 56.2321C145.08 56.4621 145.742 56.7697 146.696 57.1521C147.647 57.5374 148.486 57.7271 149.208 57.7271C151.324 57.7271 152.385 57.1291 152.385 55.9331C152.385 55.6887 152.305 55.4587 152.149 55.2431C152 55.0304 151.736 54.8147 151.358 54.5991C150.977 54.3864 150.64 54.2167 150.346 54.0931C150.047 53.9724 149.569 53.7797 148.903 53.5181C148.237 53.2594 147.744 53.0639 147.432 52.9316C146.1 52.3882 145.066 51.7097 144.338 50.8961C143.606 50.0767 143.242 49.1941 143.242 48.2511C143.242 46.6181 143.966 45.2841 145.42 44.2491C146.88 43.2084 148.545 42.6851 150.415 42.6851Z" fill="#1DBF73"/>
<path d="M75.147 22.6178C75.147 21.7208 74.3006 20.9963 73.2184 20.9963C72.1361 20.9963 71.2863 21.7208 71.2863 22.6178C71.2863 23.4918 72.1361 24.2163 73.2184 24.2163C74.3006 24.2163 75.147 23.4918 75.147 22.6178ZM83.1286 22.5517C83.1286 18.3053 79.809 14.0388 73.2426 14.0388C66.5757 14.0388 63.3047 18.3053 63.3047 22.5517C63.3047 26.8211 66.5757 31.1106 73.2426 31.1106C79.809 31.1106 83.1286 26.8211 83.1286 22.5517ZM79.2679 22.6178C79.2679 25.3692 77.2352 28.1234 73.2426 28.1234C69.2015 28.1234 67.1931 25.3692 67.1931 22.6178C67.1931 19.8204 69.2015 17.0461 73.2426 17.0461C77.2352 17.0461 79.2679 19.8204 79.2679 22.6178Z" fill="#FFB71A"/>
<path d="M102.183 30.8346C100.896 28.4656 99.5049 26.1167 98.218 23.7046C100.278 23.0864 102.002 21.7208 102.002 19.1161C102.002 14.0819 96.2096 14.0388 95.0511 14.0388H88.3806C88.2523 14.0388 88.124 14.1452 88.124 14.2314V17.1323H95.0511C95.6685 17.1323 98.0897 17.2387 98.0897 19.1161C98.0897 20.9963 95.9009 21.0797 95.0511 21.0797H88.124V30.9179C88.124 31.0042 88.2523 31.1106 88.3806 31.1106H91.7557C91.9084 31.1106 92.0367 31.0042 92.0367 30.9179V24.2163H94.2532L98.0099 30.9812C98.0376 31.0473 98.1903 31.1106 98.2701 31.1106H101.95C102.155 31.1106 102.259 30.9812 102.183 30.8346Z" fill="#FFB71A"/>
<path d="M123.373 30.7914L115.107 22.7242L123.293 14.3579C123.473 14.2084 123.345 14.0388 123.064 14.0388H118.867C118.815 14.0388 118.659 14.0819 118.634 14.1021L110.885 21.9968V14.2314C110.885 14.1452 110.781 14.0388 110.625 14.0388H107.229C107.073 14.0388 106.945 14.1452 106.945 14.2314V30.0641C106.945 30.0641 111.964 25.3491 112.481 24.9006L118.478 31.0473C118.506 31.0674 118.659 31.1106 118.711 31.1106H123.14C123.397 31.1106 123.525 30.9611 123.373 30.7914Z" fill="#FFB71A"/>
<path d="M132.222 21.4448V14.2314C132.222 14.1452 132.118 14.0388 131.937 14.0388H128.566C128.41 14.0388 128.281 14.1452 128.281 14.2314V21.4448H132.222ZM143.679 14.0388H140.304C140.151 14.0388 140.023 14.1452 140.023 14.2314V24.7309H132.222V24.7079H128.281V30.9179C128.281 31.0042 128.41 31.1106 128.566 31.1106H131.937C132.118 31.1106 132.222 31.0042 132.222 30.9179V27.9107H140.023V30.9179C140.023 31.0042 140.151 31.1106 140.304 31.1106H143.679C143.859 31.1106 143.96 31.0042 143.96 30.9179V14.2314C143.96 14.1452 143.859 14.0388 143.679 14.0388Z" fill="#FE5858"/>
<path d="M163.965 14.0388H160.618C160.437 14.0388 160.337 14.1452 160.337 14.2314V25.4123C160.337 27.1402 158.432 27.9739 156.5 27.9739C154.596 27.9739 152.896 27.0769 152.664 25.3922V17.1323H148.775V25.4123C148.775 28.9342 152.251 31.1106 156.5 31.1106C160.878 31.1106 164.225 29.0204 164.225 25.4123V14.2314C164.225 14.1452 164.097 14.0388 163.965 14.0388Z" fill="#FE5858"/>
<path d="M179.054 19.1161C179.054 20.9963 176.016 20.9963 176.016 20.9963H172.925V17.0892H176.016C176.016 17.0892 179.054 17.0691 179.054 19.1161ZM182.995 18.9263C182.995 13.9094 176.016 14.0388 176.016 14.0388H169.297C169.14 14.0388 169.012 14.1452 169.012 14.2314V24.1761H176.016C176.016 24.1761 179.339 24.0467 179.339 26.0534C179.339 27.6951 177.302 27.9941 176.016 27.9941H172.953V31.1106H176.016C177.406 31.1106 183.276 30.8978 183.276 26.1397C183.276 26.1397 183.404 23.4918 180.136 22.5747C181.704 22.0399 182.995 20.9101 182.995 18.9263Z" fill="#FE5858"/>
</svg>
