<svg width="100" height="80" viewBox="0 0 100 80" fill="none" xmlns="http://www.w3.org/2000/svg">
<rect width="100" height="80" rx="5" fill="white"/>
<path d="M22 13H5C8.00009 14.2599 9.08096 15.1397 10 17L32 60.5L37 51L19 15L22 13Z" fill="#1DBF73"/>
<path d="M58 55.5001L55 62.0001C40.7229 32.7 35.0575 14.3332 28 13.5001C21.4978 12.7325 41.0267 13.7166 44.4903 13.5654C44.639 13.5221 44.8084 13.4997 45 13.5001C44.9648 13.5314 44.7861 13.5525 44.4903 13.5654C41.0883 14.5571 48.5 26.5001 48.5 26.5001C48.5 26.5001 54.4968 14.5349 52.2943 13.5001H51.5C51.8366 13.4024 52.098 13.4079 52.2943 13.5001H57.9466C57.9645 13.4997 57.9822 13.4997 58 13.5001H57.9466C55.6896 13.5483 52.9131 19.6916 48.5 28.5001L58 48.0001V55.5001Z" fill="#1DBF73"/>
<path d="M68.9405 20.406V13.1926C68.9405 13.1064 68.8364 13 68.6561 13H65.2844C65.1283 13 65 13.1064 65 13.1926V20.406H68.9405ZM80.3978 13H77.0227C76.8701 13 76.7417 13.1064 76.7417 13.1926V23.6921H68.9405V23.6691H65V29.8791C65 29.9654 65.1283 30.0718 65.2844 30.0718H68.6561C68.8364 30.0718 68.9405 29.9654 68.9405 29.8791V26.8719H76.7417V29.8791C76.7417 29.9654 76.8701 30.0718 77.0227 30.0718H80.3978C80.5782 30.0718 80.6788 29.9654 80.6788 29.8791V13.1926C80.6788 13.1064 80.5782 13 80.3978 13Z" fill="#FFB71A"/>
<path d="M64 44H71.8671C73.9761 44 75.6966 44.4686 77.0286 45.403C78.3606 46.3403 79.0266 47.6743 79.0266 49.405C79.0266 50.7476 78.6173 51.8717 77.8056 52.7745C77.0009 53.6801 75.9082 54.3155 74.5311 54.6835L82.093 62.216H75.7244L69.0089 55.017V62.216H64V44ZM69.0089 52.0845H69.5916C70.053 52.0845 70.4415 52.0787 70.7571 52.0615C71.0797 52.0471 71.4439 51.9983 71.8532 51.912C72.2695 51.82 72.6025 51.6935 72.8522 51.5325C73.102 51.3715 73.3136 51.1386 73.4905 50.831C73.6639 50.5176 73.7541 50.141 73.7541 49.704C73.7541 49.2613 73.6639 48.8846 73.4905 48.577C73.3136 48.2636 73.102 48.025 72.8522 47.864C72.6025 47.703 72.2695 47.5823 71.8532 47.496C71.4439 47.404 71.0797 47.3523 70.7571 47.335C70.4415 47.3206 70.053 47.312 69.5916 47.312H69.0089V52.0845Z" fill="#FE5858"/>
</svg>
